<?xml version="1.0" standalone="no"?><!DOCTYPE svg PUBLIC "-//W3C//DTD SVG 1.1//EN" "http://www.w3.org/Graphics/SVG/1.1/DTD/svg11.dtd"><svg t="1756781384301" class="icon" viewBox="0 0 1024 1024" version="1.1" xmlns="http://www.w3.org/2000/svg" p-id="1534" xmlns:xlink="http://www.w3.org/1999/xlink" width="200" height="200"><path d="M314.311111 771.982222c0.568889-9.102222 4.266667-17.351111 10.808889-23.893333l454.826667-447.715556c14.506667-14.222222 37.546667-14.222222 52.053333 0l105.528889 104.106667a35.697778 35.697778 0 0 1 0 51.2L482.702222 903.395556c-6.542222 6.257778-15.075556 10.24-24.177778 10.524444l-131.982222 6.826667a19.285333 19.285333 0 0 1-13.937778-5.12 18.403556 18.403556 0 0 1-5.404444-13.937778l6.826667-129.991111zM200.248889 252.871111c0.853333-3.413333 3.413333-6.257778 6.826667-7.111111s7.111111 0 9.386666 2.844444l54.613334 60.586667a139.377778 139.377778 0 0 0 75.946666 43.235556l80.497778 16.213333c7.395556 1.422222 9.955556 10.808889 4.266667 15.928889l-60.586667 52.906667c-22.755556 19.911111-38.684444 46.648889-44.657778 76.231111l-16.213333 78.222222c-0.853333 3.413333-3.413333 6.257778-6.826667 7.111111s-7.111111 0-9.386666-2.844444l-54.613334-60.586667a139.377778 139.377778 0 0 0-75.946666-43.235556l-80.782223-16.213333a8.846222 8.846222 0 0 1-7.111111-6.542222c-0.853333-3.413333 0-7.111111 2.844445-9.386667l60.586666-52.906667c23.04-19.911111 38.684444-46.933333 44.657778-76.231111l16.213333-78.222222zM520.533333 110.08c-2.56-4.266667 2.275556-8.817778 6.542223-6.542222l49.208888 29.297778c14.791111 8.817778 32.995556 8.817778 47.786667 0l49.493333-29.297778c4.266667-2.56 8.817778 2.275556 6.257778 6.542222l-29.866666 48.355556c-9.102222 14.791111-9.386667 33.28-0.568889 48.355555l28.444444 48.64c2.56 4.266667-2.275556 8.817778-6.542222 6.542222l-49.208889-29.297777c-14.791111-8.817778-32.995556-8.817778-47.786667 0l-49.493333 29.297777c-1.706667 1.137778-4.266667 0.853333-5.688889-0.853333a4.721778 4.721778 0 0 1-0.568889-5.688889l29.866667-48.64c9.102222-14.791111 9.386667-33.28 0.568889-48.355555l-28.444445-48.64z m0 0" fill="#2c2c2c" p-id="1535"></path></svg>