<?xml version="1.0" standalone="no"?><!DOCTYPE svg PUBLIC "-//W3C//DTD SVG 1.1//EN" "http://www.w3.org/Graphics/SVG/1.1/DTD/svg11.dtd"><svg t="1756090653999" class="icon" viewBox="0 0 1024 1024" version="1.1" xmlns="http://www.w3.org/2000/svg" p-id="4172" xmlns:xlink="http://www.w3.org/1999/xlink" width="200" height="200"><path d="M234.993371 918.764983s156.768549-7.835063 260.953235-8.788846c115.758811-1.059109 300.163657 8.788846 300.163657 8.788846l191.318308 21.632731s-298.896823 17.712274-491.481965 17.577692C307.053714 957.843749 32.182857 940.397714 32.182857 940.397714l202.810514-21.632731z" fill="#000000" opacity=".5" p-id="4173"></path><path d="M968.411429 547.108571c0 218.135406-205.651383 394.971429-459.337143 394.971429S49.737143 765.243977 49.737143 547.108571c0-218.135406 205.651383-394.971429 459.337143-394.971428s459.337143 176.836023 459.337143 394.971428z" fill="#000000" p-id="4174"></path><path d="M162.880366 70.261029C196.909349 73.941577 348.107337 150.908343 421.302857 189.246903 190.221166 252.500846 178.468571 336.457143 115.565714 392.045714 112.116297 288.533943 128.848457 66.58048 162.880366 70.263954zM859.36128 73.186743c-34.03776 3.662994-192.231131 76.089051-265.438354 114.249143C825.048503 250.394331 845.531429 359.862857 912.822857 400.822857c3.452343-103.026103-19.426743-331.299109-53.461577-327.636114z" fill="#000000" p-id="4175"></path><path d="M142.289189 78.82752c4.555337-6.729143 13.02528-15.68768 25.781394-14.336 10.491611 1.114697 27.390537 6.038674 46.650514 12.603977 19.766126 6.740846 43.476114 15.731566 68.312503 25.755063 49.625966 20.032366 104.392411 44.447451 142.025874 63.77472a14.628571 14.628571 0 1 1-13.364663 26.027154c-36.600686-18.797714-90.504046-42.850011-139.615085-62.6688-24.529189-9.903543-47.706697-18.686537-66.799909-25.196251-17.454811-5.950903-30.415726-9.616823-37.820708-10.8544-0.263314 0.333531-0.579291 0.760686-0.945006 1.299017-2.586331 3.818057-5.59104 10.503314-8.718629 20.412709-6.16448 19.552549-11.585829 47.639406-16.246491 79.828114-9.294994 64.14336-15.204937 141.724526-18.704092 193.176137a14.628571 14.628571 0 1 1-29.189851-1.983634c3.499154-51.480869 9.470537-130.039223 18.938149-195.387977 4.716251-32.554423 10.397989-62.548846 17.302674-84.436115 3.408457-10.810514 7.431314-20.6848 12.393326-28.013714z m26.179291 14.037577a0.722651 0.722651 0 0 1-0.193097 0.155063c0.128731-0.12288 0.193097-0.16384 0.193097-0.155063zM876.377234 81.261714c-4.695771-6.571154-13.218377-15.17568-25.719954-13.838628-10.427246 1.117623-27.194514 6.050377-46.273097 12.61568-19.587657 6.740846-43.081143 15.731566-67.689326 25.757988-49.17248 20.032366-103.438629 44.453303-140.729783 63.780572a14.628571 14.628571 0 1 0 13.464137 25.977417c36.255451-18.794789 89.652663-42.84416 138.304366-62.662949 24.300983-9.900617 47.261989-18.680686 66.17088-25.1904 17.402149-5.986011 30.272366-9.654857 37.557394-10.866103 0.301349 0.351086 0.672914 0.8192 1.114698 1.439452 2.679954 3.74784 5.839726 10.298514 9.189668 19.98848 6.612114 19.134171 12.67712 46.668069 18.013623 78.280411 10.632046 62.990629 17.925851 139.430766 21.372343 190.633692a14.631497 14.631497 0 0 0 29.192777-1.96608c-3.484526-51.73248-10.860251-129.2288-21.714651-193.536-5.409646-32.036571-11.790629-61.489737-19.213166-82.967406-3.668846-10.620343-7.919909-20.283977-13.039909-27.4432z m-25.880868 14.631497c0 0.008777 0.064366 0.064366 0.187245 0.137509-0.12288-0.108251-0.187246-0.146286-0.187245-0.137509z" fill="#000000" p-id="4176"></path><path d="M174.963566 140.434286c34.175269 20.140617 117.332846 72.197851 100.837668 82.306194-48.888686 29.965166-117.543497 86.884937-128.936228 101.235566-11.392731 14.350629 6.834469-174.477897 28.09856-183.54176z m671.147154 0c-34.175269 20.140617-117.332846 72.197851-100.837669 82.306194 48.888686 29.965166 117.543497 86.884937 128.936229 101.235566 11.392731 14.350629-6.834469-174.477897-28.09856-183.54176z" fill="#FFFFFF" opacity=".2" p-id="4177"></path><path d="M374.491429 889.934994c0 11.0592-2.884754 18.733349-7.176778 24.640366-4.514377 6.217143-11.881326 12.220709-23.309165 17.451886C320.415451 942.831909 284.914834 947.931429 241.371429 947.931429s-79.044023-5.09952-102.634058-15.904183c-11.42784-5.231177-18.794789-11.234743-23.309165-17.451886-4.292023-5.907017-7.176777-13.581166-7.176777-24.640366 0-22.870309 12.744411-49.122743 37.443291-70.489234C170.060069 798.368914 203.945691 784.091429 241.371429 784.091429c37.425737 0 71.31136 14.277486 95.676708 35.354331C361.747017 840.812251 374.491429 867.064686 374.491429 889.934994z m29.257142 0C403.748571 956.778789 331.050423 977.188571 241.371429 977.188571S78.994286 956.778789 78.994286 889.934994C78.994286 823.094126 151.692434 754.834286 241.371429 754.834286s162.377143 68.25984 162.377142 135.100708z m500.297143 0c0 11.0592-2.884754 18.733349-7.176777 24.640366-4.514377 6.217143-11.881326 12.220709-23.309166 17.451886-23.590034 10.804663-59.090651 15.904183-102.634057 15.904183s-79.044023-5.09952-102.634057-15.904183c-11.42784-5.231177-18.794789-11.234743-23.309166-17.451886-4.292023-5.907017-7.176777-13.581166-7.176777-24.640366 0-22.870309 12.744411-49.122743 37.443292-70.489234C699.614354 798.368914 733.499977 784.091429 770.925714 784.091429c37.425737 0 71.31136 14.277486 95.676709 35.354331C891.301303 840.812251 904.045714 867.064686 904.045714 889.934994z m29.257143 0C933.302857 956.778789 860.604709 977.188571 770.925714 977.188571s-162.377143-20.409783-162.377143-87.253577C608.548571 823.094126 681.24672 754.834286 770.925714 754.834286s162.377143 68.25984 162.377143 135.100708z" fill="#FFFFFF" p-id="4178"></path><path d="M392.045714 890.341669C392.045714 950.14912 325.24288 968.411429 242.834286 968.411429c-82.405669 0-149.211429-18.262309-149.211429-78.06976C93.622857 830.537143 160.428617 769.462857 242.834286 769.462857c82.408594 0 149.211429 61.074286 149.211428 120.878812zM918.674286 889.71264C918.674286 947.761737 852.523886 965.485714 770.925714 965.485714s-147.748571-17.723977-147.748571-75.773074c0-58.046171 66.1504-117.324069 147.748571-117.324069s147.748571 59.277897 147.748572 117.324069z" fill="#000000" p-id="4179"></path><path d="M285.075749 882.568046a8.777143 8.777143 0 0 0-17.124206-3.853166c-2.363977 10.500389-4.251063 27.118446-2.23232 43.382491 1.980709 15.989029 8.04864 33.83296 23.727543 43.537555a8.777143 8.777143 0 1 0 9.242331-14.924069c-8.897097-5.506194-13.800594-16.676571-15.550171-30.772663-1.714469-13.824-0.087771-28.3648 1.936823-37.370148z m-98.075795 11.969097a8.777143 8.777143 0 1 0-16.9984-4.385646c-2.153326 8.349989-4.049189 21.714651-2.878903 35.380663 1.158583 13.499246 5.459383 28.885577 17.302675 39.245531a8.777143 8.777143 0 1 0 11.556571-13.2096c-6.88128-6.02112-10.380434-15.991954-11.369326-27.533897-0.974263-11.372251 0.643657-22.729874 2.387383-29.497051z m541.71648-9.043383a8.777143 8.777143 0 0 1 17.127132-3.853166c2.363977 10.500389 4.248137 27.118446 2.23232 43.382492-1.983634 15.989029-8.04864 33.83296-23.730469 43.537554a8.777143 8.777143 0 1 1-9.239406-14.924069c8.897097-5.506194 13.800594-16.676571 15.550172-30.772662 1.711543-13.824 0.087771-28.3648-1.939749-37.370149z m98.075795 11.969097a8.777143 8.777143 0 0 1 16.9984-4.385646c2.156251 8.349989 4.052114 21.714651 2.878902 35.380663-1.155657 13.499246-5.459383 28.885577-17.299748 39.245532a8.777143 8.777143 0 1 1-11.559497-13.2096c6.88128-6.02112 10.380434-15.991954 11.369325-27.533897 0.974263-11.372251-0.640731-22.729874-2.387382-29.497052zM663.671954 608.586606c35.684937-5.757806 90.95168-14.268709 140.767817-21.097326 24.906606-3.414309 48.473234-6.407314 67.554743-8.426057 18.973257-2.00704 33.797851-3.083703 41.036069-2.568777a2.925714 2.925714 0 1 1-0.415452 5.8368c-6.623817-0.47104-20.898377 0.529554-40.003291 2.551223-18.996663 2.009966-42.496 4.994194-67.376274 8.405577-49.757623 6.816914-104.974629 15.321966-140.633235 21.07392a2.925714 2.925714 0 1 1-0.930377-5.77536z m-309.177783 14.631497c-34.429806-5.757806-87.745097-14.271634-135.805805-21.097326-24.028891-3.414309-46.764617-6.41024-65.176137-8.428983-18.300343-2.00704-32.621714-3.083703-39.625875-2.568777a2.925714 2.925714 0 0 0 0.433006 5.8368c6.366354-0.47104 20.117211 0.526629 38.555063 2.548297 18.323749 2.009966 40.989257 4.994194 64.991817 8.405577 47.999269 6.81984 101.264823 15.321966 135.662446 21.07392a2.925714 2.925714 0 1 0 0.965485-5.769508z m-105.068251 31.565531c-48.060709 6.825691-101.376 15.33952-135.805806 21.097326a2.925714 2.925714 0 1 0 0.965486 5.769509c34.397623-5.751954 87.663177-14.25408 135.665371-21.07392 23.999634-3.411383 46.665143-6.395611 64.988892-8.405578 18.437851-2.021669 32.188709-3.019337 38.555063-2.548297a2.925714 2.925714 0 1 0 0.43008-5.8368c-7.00416-0.514926-21.322606 0.561737-39.622949 2.568777-18.41152 2.018743-41.147246 5.014674-65.176137 8.428983z m663.862126 9.391543c-35.687863-5.757806-90.95168-14.268709-140.767817-21.097326-24.906606-3.414309-48.473234-6.407314-67.554743-8.426057-18.973257-2.00704-33.797851-3.083703-41.036069-2.568777a2.925714 2.925714 0 1 0 0.415452 5.8368c6.620891-0.47104 20.898377 0.529554 40.003291 2.551223 18.996663 2.009966 42.496 4.994194 67.376274 8.405577 49.757623 6.816914 104.974629 15.321966 140.633235 21.07392a2.925714 2.925714 0 1 0 0.930377-5.77536zM320.602697 571.696274c32.744594 5.108297 77.478766-5.213623 84.330789-49.13152 6.852023-43.920823-11.179154-102.367817-59.51488-109.910308-34.304-5.351131-80.398629 23.926491-87.250652 67.844388-6.854949 43.917897 9.4208 82.926446 62.434743 91.19744z m348.361874-0.772388c31.820069 6.79936 76.241189-0.874789 85.36064-43.555109 9.119451-42.68032-5.359909-100.9664-52.335177-111.004526-33.335589-7.124114-80.126537 19.058103-89.245988 61.738423-9.122377 42.68032 4.698697 81.811749 56.220525 92.821212z" fill="#FFFFFF" p-id="4180"></path><path d="M333.853257 548.205714c32.721189 5.105371 65.47456 0.064366 70.98368-35.243154 5.50912-35.30752-12.282149-89.760914-50.547566-95.732297-32.724114-5.105371-64.2048 22.495817-69.71392 57.803337-5.50912 35.304594 16.553691 68.066743 49.277806 73.172114z m349.385874 0.415452c31.799589 6.796434 64.18432 3.64544 71.51616-30.667337 7.33184-34.309851-7.129966-88.669623-44.315794-96.615863-31.802514-6.796434-64.172617 18.543177-71.504457 52.853028-7.33184 34.312777 12.501577 67.636663 44.304091 74.430172z" fill="#FED43E" p-id="4181"></path><path d="M388.847909 497.266103c5.947977-1.357531 8.358766-13.036983 5.383314-26.088594-2.975451-13.051611-10.207817-22.533851-16.155794-21.179246-5.947977 1.357531-8.358766 13.036983-5.38624 26.088594 2.975451 13.051611 10.210743 22.533851 16.15872 21.179246z m352.083382 4.292023c5.839726-1.3312 8.159817-13.007726 5.18144-26.079817-2.978377-13.072091-10.128823-22.592366-15.971474-21.261166-5.839726 1.3312-8.159817 13.007726-5.178514 26.079817 2.978377 13.072091 10.128823 22.592366 15.968548 21.261166z" fill="#000000" p-id="4182"></path><path d="M558.811429 553.913783c0 10.503314-18.993737 10.749074-42.422858 10.749074s-42.422857-0.24576-42.422857-10.749074S492.959451 526.628571 516.388571 526.628571s42.422857 16.781897 42.422858 27.285212z" fill="#FFCFC2" p-id="4183"></path></svg>